<svg xmlns="http://www.w3.org/2000/svg" width="14" height="14"><path fill="#fff" d="M10 7q0-.289-.234-.422l-4-2.5q-.242-.156-.508-.016Q5 4.203 5 4.5v5q0 .297.258.438.125.062.242.062.156 0 .266-.078l4-2.5Q10 7.289 10 7zm4 0q0 .75-.008 1.172t-.066 1.066-.176 1.152q-.125.57-.539.961t-.969.453q-1.734.195-5.242.195t-5.242-.195q-.555-.062-.973-.453t-.543-.961Q.133 9.882.074 9.238T.008 8.172 0 7t.008-1.172.066-1.066T.25 3.61q.125-.57.539-.961t.969-.453Q3.492 2.001 7 2.001t5.242.195q.555.062.973.453t.543.961q.109.508.168 1.152t.066 1.066T14 7z"/></svg>