<svg xmlns="http://www.w3.org/2000/svg" xmlns:xlink="http://www.w3.org/1999/xlink" width="971.4" height="662" data-name="Layer 1"><defs><linearGradient id="a" x1="178.3" x2="299.7" y1="634" y2="634" gradientUnits="userSpaceOnUse"><stop offset="0" stop-color="gray" stop-opacity=".3"/><stop offset=".5" stop-color="gray" stop-opacity=".1"/><stop offset="1" stop-color="gray" stop-opacity=".1"/></linearGradient><linearGradient id="b" x1="979.5" x2="979.5" y1="738.6" y2="646.8" xlink:href="#a"/><linearGradient id="c" x1="600.6" x2="600.6" y1="650.1" y2="119" xlink:href="#a"/><linearGradient id="d" x1="485.7" x2="485.7" y1="615.6" y2="377.7" xlink:href="#a"/></defs><path fill="url(#a)" d="M299 604.1a23.6 23.6 0 0 0-9.3-25c-2.1-1.4-4.4-2.4-6.3-4-3.2-2.7-5-6.6-6.3-10.6-3.1-9.4-4.1-20-9.6-28.5-5-7.7-14.8-10-23.4-10.8-3.2-.2-6.5-.4-9.4 1-4.8 2-7 7.8-7.3 13s1.2 10.6 1.5 15.9-.6 11-4.5 14.6-9.5 4-14.6 4.7a97 97 0 0 0-19.9 5c-5.4 2-11.4 5.5-11.6 11.2-.2 4.7 3.5 8.4 6.4 12.2 5.3 7 8 16.1 6.1 24.7s-8 16.2-9 25a10.9 10.9 0 0 0 .9 6.6 12.1 12.1 0 0 0 3.3 3.6c3.3 2.6 7 4.6 10.2 7.4a50.2 50.2 0 0 1 12.9 22.6l.7 2.5h-6.4a24 24 0 0 0-24 23.8 24 24 0 0 0 24 23.9h64.5a24 24 0 0 0 23.9-23.9 24 24 0 0 0-24-23.9h-17.6c4.2-5.6 8.6-10.9 15-13s14.3-.9 19.3-5.4a15.2 15.2 0 0 0 4.4-8.7 25.9 25.9 0 0 0-2.8-17.2c-2-3.6-5-6.9-5.7-11-.5-3.5.8-7 2.5-10.1 4.9-9 13.5-15.8 16.1-25.6z" opacity=".7" transform="translate(-114.3 -119)"/><path fill="#4db6ac" d="M129.6 411.4c-3-.3-6.2-.4-9 .9-4.5 2-6.7 7.5-7 12.5s1.2 10 1.5 15-.6 10.5-4.3 14-9 3.8-14 4.5A92.3 92.3 0 0 0 78 463c-5.1 1.9-10.9 5.2-11.1 10.7-.2 4.5 3.4 8 6.1 11.6 5 6.6 7.6 15.4 5.9 23.5s-7.6 15.5-8.7 23.9a10.4 10.4 0 0 0 .9 6.3 11.5 11.5 0 0 0 3.2 3.4c3.1 2.4 6.7 4.4 9.7 7A47.8 47.8 0 0 1 96.2 571a174.3 174.3 0 0 1 6 23.8c5.4-3.4 12.4-3.4 18.2-6.2 12.2-6 16.3-23.4 29.3-27.7 6-2 13.5-.9 18.4-5.2a14.4 14.4 0 0 0 4.1-8.2 24.6 24.6 0 0 0-2.7-16.4c-1.9-3.5-4.7-6.6-5.3-10.5-.6-3.4.6-6.7 2.3-9.7 4.6-8.5 12.8-15 15.4-24.3a22.5 22.5 0 0 0-9-23.8 66.3 66.3 0 0 1-6-3.9c-3-2.5-4.7-6.3-6-10-3-9-3.9-19-9.1-27.2-4.7-7.4-14-9.5-22.2-10.3z"/><path fill="none" stroke="#535461" stroke-miterlimit="10" d="M129.5 411.7s11.3 152.4-18.2 178.6" opacity=".6"/><rect width="106.9" height="45.5" x="68" y="573.2" fill="#00c9ff" rx="15.2" ry="15.2"/><path fill="none" stroke="#535461" stroke-miterlimit="10" d="M67 470.9s29-3.4 64.5 18.2M131 507.3s16.1-26.8 50.8-31.9M69.7 532.9s40.3-6.9 58.8 4.5M126.3 553s21-9.6 44.8-1.8" opacity=".6"/><path fill="url(#b)" d="M1009.8 663.2v-16.4h-82v75.8a16 16 0 0 0 16 16h50a16 16 0 0 0 16-16v-16.8a21.3 21.3 0 1 0 0-42.6zm0 34.4v-26.2a13.1 13.1 0 1 1 0 26.2z" opacity=".7" transform="translate(-114.3 -119)"/><path fill="#00c9ff" d="M892.9 546.7a19.5 19.5 0 1 0 19.4 19.5 19.5 19.5 0 0 0-19.4-19.5zm0 31.5a12 12 0 1 1 12-12 12 12 0 0 1-12 12z"/><path d="M892.9 546.7a19.5 19.5 0 1 0 19.4 19.5 19.5 19.5 0 0 0-19.4-19.5zm0 31.5a12 12 0 1 1 12-12 12 12 0 0 1-12 12z" opacity=".1"/><path fill="#00c9ff" d="M818 531.8h74.8v74a9.8 9.8 0 0 1-9.7 9.8h-55.3a9.8 9.8 0 0 1-9.8-9.8v-74z"/><path fill="#e0e0e0" d="M0 615.6h971.4v32.9H0z"/><path fill="url(#c)" d="M753.3 514.3c-10.5-37.8-69.5-65.4-113.9-71.5V409.6h.1v-1.3a111 111 0 0 0 67-70.2 119.9 119.9 0 0 0 7.2-15.5c4.7-1.7 8.3-9.5 8.3-18.9a33 33 0 0 0-1.3-9.5 121.5 121.5 0 0 0 .9-14.4 120.2 120.2 0 0 0-39.7-89.4 23.4 23.4 0 0 0 .3-5.9c-1-15.5-17.6-26-33-26.8a32.8 32.8 0 0 0 5.4-34.6c-9.9 14.4-30.2 16-47.7 16.1 7.5-3 11-13.4 6.5-20.2-18.3 24.5-54 29-75.7 50.6a63.9 63.9 0 0 0-11.8 16 120.2 120.2 0 0 0-45.3 94.2 121.6 121.6 0 0 0 .8 14.3 33 33 0 0 0-1.3 9.6c0 9.4 3.6 17.3 8.3 19a119.9 119.9 0 0 0 7.2 15.5 111 111 0 0 0 66.6 70V442.8c-44.6 6-104.1 33.8-114.4 71.9-9 32.9-18.5 69-23.2 90.2 40.6 28.5 125.7 45.2 179 45.2 50.7 0 133.5-15 173-41-4.2-23.4-14-61.1-23.4-94.8z" opacity=".7" transform="translate(-114.3 -119)"/><path fill="#00c9ff" d="M489.3 521.7c49 0 128.8-14.6 166.8-39.6-4-22.5-13.5-58.9-22.5-91.4-11.4-41.5-83.5-70.2-126.6-70.2h-41.4c-43.2 0-115.4 28.9-126.6 70.5-8.6 31.8-17.8 66.6-22.4 87 39.1 27.6 121.3 43.7 172.7 43.7z"/><circle cx="486.8" cy="164.5" r="116.2" fill="#72351c"/><path d="M449.3 261.3h74.5V321a37.2 37.2 0 0 1-37.3 37.2 37.2 37.2 0 0 1-37.2-37.2v-59.6z" opacity=".1"/><path fill="#fda57d" d="M460 258.6h53.1a10.7 10.7 0 0 1 10.7 10.6v49a37.2 37.2 0 0 1-37.2 37.2 37.2 37.2 0 0 1-37.3-37.3v-48.9a10.7 10.7 0 0 1 10.7-10.6z"/><path d="M449.4 289.4a107.2 107.2 0 0 0 74.5.2v-9.1h-74.5z" opacity=".1"/><circle cx="486.8" cy="187.7" r="106.8" fill="#fda57d"/><path d="M410.7 90.6s45 91.3 172 38.2L553 82.5l-52.4-18.8z" opacity=".1"/><path fill="#72351c" d="M410.7 89.2s45 91.3 172 38.3L553 81.2l-52.4-18.8z"/><path fill="#72351c" d="M410.4 83a61.7 61.7 0 0 1 15.3-24.8c21-20.8 55.4-25.1 73-48.8 4.3 6.6 1 16.7-6.3 19.5 16.9-.1 36.5-1.6 46-15.5a31.6 31.6 0 0 1-5.2 33.4c15 .6 31 10.8 32 25.8.6 10-5.7 19.4-13.9 25.1s-18 8.4-27.8 10.5c-28.6 6.3-131.8 32.7-113.1-25.1zM593.6 188.6h-2.9l-55 49c-53-24.8-92 0-92 0l-57.8-47-5.8.7a106.8 106.8 0 0 0 213.5-2.7zm-107 67.8c-20.7 0-37.6-4.2-37.6-9.4s16.9-9.4 37.6-9.4 37.6 4.2 37.6 9.4-16.8 9.4-37.6 9.4z"/><ellipse cx="380" cy="187.6" fill="#fda57d" rx="9.9" ry="18.6"/><ellipse cx="593.5" cy="187.6" fill="#fda57d" rx="9.9" ry="18.6"/><rect width="413.1" height="237.9" x="279.2" y="377.7" fill="url(#d)" opacity=".7" rx="14.5" ry="14.5"/><rect width="398.2" height="233.5" x="286.6" y="382.1" fill="#535461" rx="26.8" ry="26.8"/><circle cx="485.7" cy="498.9" r="13.5" fill="#fff"/><path fill="#e0e0e0" d="M41.2 648.5h889.1V662H41.2z"/><path d="M41.2 648.5h889.1v4.5H41.2zM879.4 531.8V601a14.6 14.6 0 0 1-14.6 14.6h7.5a14.6 14.6 0 0 0 14.6-14.6v-69.2z" opacity=".1"/><path fill="#eee" d="M832.8 476c-1.3.2-2.7.6-3.3 1.7-1 1.8.8 3.8 2.4 5 3 2.2 6.2 4.5 8.2 7.6s2.7 7.6.4 10.6c-2.9 4-9.8 4.8-10.5 9.6-.4 3.2 2.3 5.8 5 7.4 6.8 3.8 15.5 4.9 20.3 11 2-4.2 6.6-6.6 11-7.7s9.2-1 13.8-1.6c1.5-.2 3.1-.7 3.8-2 1.3-2.6-2.4-5.7-1.1-8.3 1-2 3.7-1.8 5.8-2.6 3.3-1.3 4.7-5.6 3.8-9s-3.7-6.2-6.5-8.4c-7.6-6-16.7-9.5-26-12-4.2-1.2-9.2-3-13.7-3.2-4.3-.2-9.2 1.1-13.4 1.9z"/></svg>