<svg xmlns="http://www.w3.org/2000/svg" width="1090.8" height="795.1" data-name="Layer 1"><defs><linearGradient id="a" x1="946.6" x2="946.6" y1="846.8" y2="635.5" gradientUnits="userSpaceOnUse"><stop offset="0" stop-color="gray" stop-opacity=".3"/><stop offset=".5" stop-color="gray" stop-opacity=".1"/><stop offset="1" stop-color="gray" stop-opacity=".1"/></linearGradient></defs><path fill="#00c9ff" d="M1090.8 241.4s-15.3-6.2-63.7 16-54.5 19.4-67 16-19.6-4.2-33-22.8c0 0-9.5-51.4-18.7-59.3s-48.2 4.5-48.2 4.5-46.8 10.7-55.7-51.7c0 0 6.4-47.1-2.3-61.6 0 0 17.4 7.5 46.1-4.6S900 91 900 91s7.2 18.7 6.4 29.9 3.9 15.4 17.5 10c0 0 6.8-9.6-2.8-25.4S904.8 78 907.5 65.6s10.3-29.3 34.8-37.8 57.9-10.2 73.9-16.8S1036 0 1036 0s-9.9 9.8 13.3 51.7 8.4 60 8.4 60-12.3 29.4-66.8 27c0 0-52.5 1.9-23.9 24.1 0 0 18.4-3.7 45.8-12.4s47.1 27.2 52 52.2 25.9 38.8 25.9 38.8z"/><path fill="#444053" d="M1020.2 31.7h.3c2.1 8-21.4 40-41.4 65.5l-.3-.2c28.3-36 43-59.1 41.4-65.3z"/><path fill="#444053" d="M979.3 96.5v.3a1384 1384 0 0 1-56.7 68l-.5-.4 4.6-5.3c16-18 36.6-42.3 52.6-62.6z"/><path fill="#444053" d="M922.5 164l.3.5c-29.3 36.6-31.3 93.5-31.3 94l-6.2-7.1c0-.5 7.7-50.6 37.2-87.5z"/><path fill="none" stroke="#444053" stroke-miterlimit="10" d="M1056.7 221.5s-34.6-18-61.5-11.5-87.7-22.8-87.7-22.8-25.8-10.5-31-22.4c0 0-17.7-18.7-18.7-28.4s-18.2-34-29.4-35M1051.7 238.9s-17.4-11.8-15.4-25.5M1025 254s-25-9-27.4-44.5M984.8 263.2s-23.8-19.8-16-54.3M936.5 253.5s-15.9-33.2-1.8-54.9M1057.1 199.6s-18 5.7-14.1 15.2M1035.4 167s-24.1 7.6-24.7 41.7M1001.8 159s-22 27.1-20.4 51.7M963.4 169.7s-21.8 20.8-19 32.4M950.2 162.3s-20.5 3.7-23.3-3M923.6 137.6s10.3 13.7 13 10.6M1026 129s-51.5 3.7-63.2-11.8M912.8 68.7s24.2 51.9 41.7 58.5M938.1 44s14.9 47.7 33.3 62.6"/><path fill="none" stroke="#444053" stroke-miterlimit="10" stroke-width=".8" d="M1047.7 89.5s-39.2 16.9-62.7-.2M973 33.8s9 35.1 21 43.6M1041.8 50.3s-22 8.3-30.3 2"/><path fill="none" stroke="#444053" stroke-miterlimit="10" d="M904.8 149s-.1 30.7-8.4 32.9M836.7 188.7s33 2.8 48.3-14.2M896.2 113s-8 31-30 39.3M816.8 156s23.5 8.2 43.6-12.6M870.2 86.3s-2.2 26.3-16.5 38.7M817.7 115.9s19.5.1 24-6.2"/><path fill="#00c9ff" d="M188 742.6s13.2-8.8 26.4-2.5c0 0-4 7.8-20.8 7zM186.3 743s-4 15.5 6 26c0 0 6.2-6.4.1-22zM169.7 728.3s1-13.1 30.6-8.8c0 0 .1 8.5-10.3 12.5s-15.1.6-20.3-3.7zM167.9 728.2s-12.6 4-1.4 31.8c0 0 8.3-1.9 9.7-13s-3-14.8-8.3-18.8zM151 709.5s-1.6-21.5 28.7-19.3c0 0 2.1 19.5-23.3 24.5zM131.1 685.2s4.1-24.4 34.4-17.1c0 0 .1 21.1-29.5 23zM116.5 660s7-23.8 36.9-16.7c0 0-7.1 21.5-35 21.1zM102.6 635.4s6.8-24.7 35.7-17.3c0 0-9.6 23.5-33.8 21.5zM93.7 612s5.2-30.2 32.2-23.5c0 0-7.9 27.5-30.3 28zM85.3 583.8s6.2-30.4 33.5-21.6c0 0-10.7 28.8-31.6 25.8zM80 557.5s10-30.4 31.1-29.6c0 0-10.2 32.2-29.3 35.8zM76.8 532s10.8-36.8 28-34c0 0-7.5 28-27.4 39.6zM74.9 501.3S85 470.7 102 469.5c0 0-7 30.1-26.7 39.8zM72.8 472.8s12.7-30.6 23.9-31.3c0 0-5.5 30.1-22.7 36.3zM71.4 446.3s7.8-33.3 19-36c0 0-1.5 27.1-17.8 38.4zM67.2 411.5s8.2-26.4 17.3-30.5c0 0-1.8 31.2-15.2 37zM63.7 388.7L62.1 342S79 377.2 65 397zM50.6 342.3s-12.2-34.1-15-36c0 0 23.8 22 21.5 50.6zM150.3 709.4s-21.5-2.8-20.9 27.5c0 0 19.4 3.2 25.8-21.9zM130 684.4s-24.7 0-22.7 31c0 0 20.8 3.7 27.7-25zM116.2 662s-22.5-10.5-36.9 16.7c0 0 20.8 8.8 39-12.3zM102.1 635.7s-23-11.3-36.6 15.4c0 0 24 8.2 38.5-11.2z"/><path fill="#00c9ff" d="M94 612.7s-22.2-21.2-40 .3c0 0 22.7 17.4 41 4.5zM86.5 583.1s-22.3-21.7-39.9 1c0 0 25 17.8 40.7 3.6zM82.4 556.7s-17.2-27-37.5-21c0 0 17.9 28.7 37.3 27.4zM77.3 531.8s-17.4-34.1-33.7-28.2c0 0 12.5 26.2 34.1 33.9zM76 499.5S58.4 472.7 41.7 476c0 0 14.5 27.2 36.2 31.3zM74.7 472.2s-13.8-30.1-25-30.4c0 0 6.6 30 24.1 35.5zM72 445.6S56.6 415 45 415c0 0 7.9 26.1 26.4 33.3zM69.7 413.4s-11.5-25.3-21-28.1c0 0 5.7 30.7 19.7 34.8z"/><path fill="#00c9ff" d="M62.4 387.8l-25.7-39s6.6 38.5 29.4 46.5zM44.8 345.4s-29.9-20.6-31-23.9c0 0 15.3 28.9 43.4 34zM43 336.2s-34.3-33-43-33c0 0 28.2 1.4 43.8 31.2z"/><path fill="#444053" d="M69.4 418.3l-1.3.1c-6.4-50.3-15.8-80-26.4-83.8l.4-1.1c11.3 3.9 20.7 33.2 27.3 84.8z"/><path fill="#444053" d="M78.8 538.6l-1.9.2c-.4-4.7-.7-9.5-.9-14.3-1.8-41.7-4.6-80-8.2-108.6l1-1.4c3.7 28.8 7.3 68.2 9 110l1 14.1z"/><path fill="#444053" d="M223 766.5c-.3-.1-33.4-15-67.9-50.2a273.5 273.5 0 0 1-49.6-70.4A318.6 318.6 0 0 1 76.6 535l2 1c7.3 86.8 46.9 146.2 78.3 178.5 34.1 35 66.9 49.6 67.2 49.8z"/><path fill="#e8eaf2" d="M1000.6 133.3V738c0 18-17.3 32.6-38.7 32.6H141.2c-21.4 0-38.7-14.6-38.7-32.6V133.3c0-18 17.3-36.4 38.7-36.4l820.6 2c21.4 0 38.8 16.3 38.8 34.4z"/><path fill="#65617d" d="M1000.6 133.4v28H102.5v-28A36.6 36.6 0 0 1 139 97h825a36.6 36.6 0 0 1 36.6 36.5z"/><circle cx="146" cy="129.2" r="12.9" fill="#fa5959" opacity=".8"/><circle cx="183.6" cy="129.2" r="12.9" fill="#fed253" opacity=".8"/><circle cx="221.2" cy="129.2" r="12.9" fill="#8ccf4d" opacity=".8"/><path fill="url(#a)" d="M1035.3 810.6l-21.8-31.6s-.4-7.8-1.9-9.7-.3-5.9-.3-5.9 1.6-2.2.2-2.4-.2-5.2-.2-5.2v-8s1.2-7.6.1-9.4a3 3 0 0 1 .1-3.3s1.3-4.3 0-5.5-.9-7.9-.6-13.3-2.1-8.4-2.1-9.2-8-8.8-8-9.5-5.2-3.7-8.2-4.5-4.6-1.4-4.5-1.8-4.8-2-4.8-2-4.3-.3-6-2.5-6.5-2.7-6.7-2.7 0-.3 0-.5l-.2-.4c.4-.7.8-1.3 1-2l.4-.6a8.7 8.7 0 0 0 5-1.6 6.9 6.9 0 0 0 2.4-4.9 10.7 10.7 0 0 0-1.2-5.4c-.9-1.8-2.2-3.7-1.7-5.7.2-.9.7-1.6 1-2.5a6.5 6.5 0 0 0-.8-4.8c-.7-1.5-1.8-2.8-2.7-4.2a16.5 16.5 0 0 1-2.1-6 9.3 9.3 0 0 0-.8-3.2 6.2 6.2 0 0 0-1.8-1.8 17.9 17.9 0 0 0-11-3.4c-2.8.1-5.6.9-8.3.5a29.2 29.2 0 0 1-4.9-1.2c-3.4-1-7.3-1.5-10.3.5s-4.2 5.8-6.2 8.8c-1.8 2.7-4.4 5-5.8 7.7v-.1a9.6 9.6 0 0 0-.7 2 14.7 14.7 0 0 0 .4 6.8 4.7 4.7 0 0 0 1.7 3c1 .6 2.4.5 3.6.7l-.2.6a23.3 23.3 0 0 0 16.2 27.1v.6a14 14 0 0 1-.1 1.8s-10.3-2.1-13-.7-8.2 2.6-9 3.4-2.9.2-4.7 5-2 9.6-4.4 11.9-3.6 3.7-3.7 5.4.3 2-.6 2.5-2.2 2.7-1.8 3.5a3 3 0 0 1-1.1 3 3.4 3.4 0 0 0-1.5 3s-.6 2.3-2 2.8-2.3 3.8-2.3 3.8l-4.6 5.4-9.2-10.2a3.9 3.9 0 0 0-5.5-.3l-4.5 4a9 9 0 0 0-4.5 2.7 11.8 11.8 0 0 0-2.3 3.5l-2.5 2.2a6.3 6.3 0 0 0-.6 7l5.9 6.4a10.4 10.4 0 0 0-5.6 2.5c-8.8 7.7-8.9 14.9-7.5 18.1s12.4 15.8 12.4 15.8 6.5 8.4 15.8 12.9h-.1l-.6.7-.1.2a2.4 2.4 0 0 1-.1.2l-.2.2-.1.2-.2.3-.1.2-.2.4-.1.1-.2.6a1.8 1.8 0 0 0-.1.2l-.2.4v.2l-.2.4-.1.3-.1.5-.1.2-.2.8a2.5 2.5 0 0 1 0 .3l-.1.5v.4l-.1.5v2.3c-.2 11.9.5 13.6.5 13.6a6.6 6.6 0 0 0 5.4 4 7 7 0 0 0 1.7 0c5.3-1 17.8-3 22.2-2.2a38 38 0 0 0 11-1l.9-.1.6 2 2-.6 1.8 1 1 .7c2 6.8 10.2 4.5 10.2 4.5l2 1 19.6.6a40 40 0 0 0 7 3.3 6.4 6.4 0 0 0 1 .3 46 46 0 0 0 5.5 0h2.7l-.5-11.4a160.4 160.4 0 0 0 18.2-1.5c10.6-1.8 15-11.4 16.6-16.5a47.5 47.5 0 0 1 1 6.4 47.2 47.2 0 0 0 1.6 5.5 18.6 18.6 0 0 0 2.2 4c7.8-2.6 3-6.6 1.5-8.3s1-3.2 1-3.2 2.2-1.4 2-2.7-.3-2.8 6.6-2.7 6.5-5.7 6.5-5.7zm-107.7-65c0 .6 1 6.9 2 8.5a10.9 10.9 0 0 1 .2 3.4l-8.4-.5a1 1 0 0 1 .2.5l-.7-.1-.9-.3 7.6-11.5zm-15 23.9l7.1 1.1.6.1a25.2 25.2 0 0 0-.4 3.4l.4.4a9 9 0 0 0-.1 1.6c.1.6 3.4 1.8 7.2 2.8l-.1.6c-3.4-1.8-8.7-2.6-9.3-3.9s-18.7-7.6-18.7-7.6l-1.8-.9 4.8.9 1.3-.1a70.6 70.6 0 0 0 9 1.6z" transform="translate(-54.6 -52.5)"/><path fill="#65617d" d="M957.5 762.6s-2.9 17-17.2 19.6-62.3 2-62.3 2-27.4-4-37.3-27.1-16.3-32.3-7.8-32.8 54.3 15.5 57 15.7 70.1-35.1 67.6 22.6z"/><path d="M957.5 762.6s-2.9 17-17.2 19.6-62.3 2-62.3 2-27.4-4-37.3-27.1-16.3-32.3-7.8-32.8 54.3 15.5 57 15.7 70.1-35.1 67.6 22.6z" opacity=".1"/><path fill="#3f3d56" d="M829 781.6a6.5 6.5 0 0 0 5.3 4 7 7 0 0 0 1.8 0c5.2-1 17.6-3 21.9-2.3 2.6.5 7.5-.3 10.9-.9l4-.8s-4-13.5-4.6-13.9l-18.2-11-14-1a7.4 7.4 0 0 0-4.7 2.8c-1.5 1.8-2.8 4.7-2.8 9.5-.3 11.9.4 13.6.4 13.6z"/><path d="M829 781.6a6.5 6.5 0 0 0 5.3 4 56.4 56.4 0 0 1-3.8-5.6l.1-9.8a17.3 17.3 0 0 1 5.5-14.5s-7.4.5-7.6 12.3.5 13.6.5 13.6zM889.7 760.2l13-10.2 20.6-20.3-5.6-.2c-.8.5-3.2 2.2-3.3 4.2 0 2.5-5.5.2-8.3 1.6s-16.7 19.1-19.1 19-4.4-1.2-5.4.5v.1z" opacity=".1"/><path d="M831.3 758.5l1.4.7a88 88 0 0 1 23 14.7c.6 1 7.7 5.3 13.1 8.6l4-.9s-4-13.4-4.5-13.8l-18.2-11-14-1a7.4 7.4 0 0 0-4.8 2.7z" opacity=".1"/><path fill="#65617d" d="M803.8 729.5c1.3 3.3 12.3 15.7 12.3 15.7s7 9.1 17 13.3 22 13.2 23 14.8c.6 1 8.5 5.8 14 9l1.2.8 2.8 1.6 1.4.8 6.8-5.4 6.7-5.6c0-.3 1.4-3.7 1.1-4-.1 0-.8-1.4-2.1-3a14.2 14.2 0 0 0-5.2-4.3 14.7 14.7 0 0 1-6.6-7l-1.2-.7a13.4 13.4 0 0 0-4.5-2c-2.2-.3-6.4-4.9-6.4-4.9a12.4 12.4 0 0 1-4-4.1c-1-2.2-16.7-13-18.1-14l38 24.4 9 5.8 13-10.2 20.6-20.2-6.8-.3c-10-.4-27.6-1.1-29.9-.6a17.2 17.2 0 0 1-5.5.4s-5 .2-8.4-1.6-8.6-2.6-9.2-3.9-18.5-7.5-18.5-7.5-24.4-13-33.1-5.3-8.7 14.8-7.4 18z"/><path fill="#ee8e9e" d="M882.4 655.3l3.1 10.4 4 23.5 14.9 1 4.3-7.1 4.3-7.2s2.6-9.4 4.6-18.6c1.7-8.1 2.8-16 1-16.8-1.7-.8-2.8-3.5-3.5-6.5l-.2-1a56.7 56.7 0 0 1-1-7.6s-31.1-1.6-26.8 11.2a20.3 20.3 0 0 1 1.2 6.8 16.1 16.1 0 0 1-.1 1.8 14.6 14.6 0 0 1-5.8 10.1z"/><path fill="#e3e8f4" d="M875.9 653.6l1.1 17.7 2.5 15 2.9 7 2.5 38.2s24.4 2.9 30.3 0a2.6 2.6 0 0 0 1-.8c7.2-10.9 4.9-42.2 4.9-42.2l2.7-20.2-1.8-10.5-4.4-.4-3.4-.4-1.9 2.4c-3 4-8.5 11.7-8.1 15 .5 4.4-.6 9-2.3 9.7s-3.2 2-3.5.7a5.5 5.5 0 0 1-.3-3.2c.3-1.7-1.3-7-1.3-7s-2.7-6.2-2.5-8.8-.3-5.7-1.1-6.4-2-1.4-1-4.6-4-9.6-4-9.6z"/><path d="M908 697.8l1 30.2 6 3.3a2.5 2.5 0 0 0 1-.9c7.2-10.8 4.8-42.1 4.8-42.1l2.7-20.2-1.8-10.5-4.4-.5c1.7-8 2.8-16 1-16.8-1.6-.8-2.7-3.5-3.4-6.4l-3.1 21.3.3 4a11 11 0 0 1-.2 3.7c-.7 1.8-.2 5-.2 5a40.9 40.9 0 0 0-3.2 15c-.6 7.6-.4 14.9-.4 14.9z" opacity=".1"/><path fill="#3f3d56" d="M915 633.4s5 .6 6.7 2.7 5.9 2.5 5.9 2.5 4.8 1.6 4.7 2 1.4 1 4.5 1.8 8 3.7 8 4.4 8 8.6 8 9.4 2.5 3.9 2.2 9.2-.6 12.2.6 13.3 0 5.4 0 5.4a3 3 0 0 0-.1 3.3c1 1.8-.2 9.4-.2 9.4v7.9s-1 5 .3 5.1-.2 2.4-.2 2.4-1.1 4 .3 5.9 1.8 9.6 1.8 9.6l21.6 31.4s.3 5.8-6.6 5.7-6.7 1.3-6.5 2.6-2 2.8-2 2.8-2.7 1.4-1 3 6.2 5.8-1.5 8.4a18.6 18.6 0 0 1-2.2-4 45.6 45.6 0 0 1-1.6-5.5s-.7-7.7-2.1-8.7-1.2-5.9-1.2-5.9 2-3.9-.8-5.5l-44-24.4-1-30.2s-.6-22.3 3.6-29.8c0 0-.5-3.3.2-5s0-7.8 0-7.8z"/><path d="M888.5 645.5s-10.2-2-13-.6-8 2.5-8.8 3.3-2.8.2-4.7 5-2 9.6-4.3 11.8-3.5 3.8-3.6 5.4.3 2-.6 2.5-2.3 2.6-1.9 3.5 21 18.6 21 18.6 1 6.7 2 8.4-1 25.4-3 27 13.6 1.5 13.6 1.5.7-15.5 1.3-16.3-.4-17.4-.4-17.4 0-14.2 1.2-18 1.2-16 1.2-16 1.2-7.5 2.6-9.3-2.6-9.4-2.6-9.4z" opacity=".1"/><path fill="#3f3d56" d="M888.2 645.2s-10.2-2.1-13-.7-8 2.5-8.8 3.4-2.8.2-4.7 5-2 9.5-4.3 11.7-3.5 3.8-3.6 5.4.3 2-.6 2.5-2.3 2.7-1.9 3.5 21 18.5 21 18.5 1 6.8 2 8.5-1 25.4-3 27 13.6 1.5 13.6 1.5.7-15.5 1.3-16.3-.4-17.4-.4-17.4-.1-14.1 1.2-17.9 1.2-16.1 1.2-16.1 1.1-7.5 2.5-9.2-2.5-9.4-2.5-9.4z"/><path d="M887.1 636.6a20.3 20.3 0 0 1 1.2 6.9 23.2 23.2 0 0 0 26.6-10.5 56.7 56.7 0 0 1-1-7.6s-31.1-1.6-26.8 11.2z" opacity=".1"/><path fill="#ee8e9e" d="M871.8 620.7a23.1 23.1 0 1 0 .5-4.9 23.1 23.1 0 0 0-.5 4.9z"/><path fill="#3f3d56" d="M856.9 674.2l-5.5 1.8a2.9 2.9 0 0 1-1.1 3 3.4 3.4 0 0 0-1.4 3s-.7 2.2-2 2.7-2.4 3.8-2.4 3.8L840 694s-1.7 1.4-1.4 2.1-1.9 1-1.9 1l1.1 18 9.6 1.7 6-.6 4.9-1.8 4.2-2.5 2-5 8.5-13z"/><path fill="#ee8e9e" d="M838 698.4s-12.3-17.8-21.5-8.2 3.7 25.2 6.7 24.7 17.5-1.4 17.5-1.4z"/><rect width="64.5" height="50.1" x="850.8" y="726.5" fill="#3f3d56" rx="1.5" transform="rotate(27 964.7 611.6)"/><path fill="#00c9ff" d="M813.6 668.6l48.3 24.6-18.6 36.5L795 705z"/><circle cx="802.5" cy="685.8" r=".9" fill="#e6e8ec"/><circle cx="854.8" cy="712.6" r="1.5" fill="#e6e8ec"/><path fill="#ee8e9e" d="M830 702.1c-.1 13.4 27.5 16.2 27.5 16.2l7 1.1 3.2.5 1.3-13-3.3-.6c-2.7-.6-6.1-1.7-6.8-3.2-1.2-2.6-28.8-14.3-28.9-1z"/><path d="M872.3 615.8a2.7 2.7 0 0 1 1.6.8c.8.8.9 2.3 1.9 2.8a2 2 0 0 0 1.2.1c2.7-.3 4.2-3.4 6.8-4.2a7 7 0 0 1 4.5.4 3.4 3.4 0 0 1 1.5 1c.9 1.1.3 2.8.7 4.1.6 1.9 2.8 2.6 4.7 2.9s4.2.4 5.5 1.8a5 5 0 0 1 1 4 3 3 0 0 0 0 1.4c.5 1.5 3.1 1.3 3.8 0 .5-.8.3-1.5 1.5-1.8a5 5 0 0 1 2.5.5 18 18 0 0 0 6.4 1 23.1 23.1 0 1 0-43.6-14.7z" opacity=".1"/><path fill="#3f3d56" d="M901.6 630.2a3 3 0 0 1 0-1.4 5 5 0 0 0-1-4c-1.3-1.4-3.5-1.5-5.4-1.8s-4.2-1-4.8-2.8c-.4-1.4.3-3-.6-4.2a3.2 3.2 0 0 0-1.5-1 6.8 6.8 0 0 0-4.5-.3c-2.6.8-4.2 3.8-6.9 4.2a2.2 2.2 0 0 1-1.2-.1c-1-.5-1-2-1.8-2.8-1.2-1.3-3.6-.5-5-1.5a4.7 4.7 0 0 1-1.7-3 14.7 14.7 0 0 1-.5-6.7c1-3.7 4.3-6.3 6.4-9.5 2-3 3.2-6.8 6.2-8.8s6.8-1.5 10.2-.5a30 30 0 0 0 4.8 1.3c2.8.3 5.5-.4 8.2-.5a17.7 17.7 0 0 1 11 3.3 6 6 0 0 1 1.7 1.8 9.2 9.2 0 0 1 .8 3.2 16.4 16.4 0 0 0 2.1 5.9c.9 1.4 2 2.7 2.7 4.2a6.5 6.5 0 0 1 .7 4.8c-.2.8-.8 1.5-1 2.4-.4 2 .9 3.8 1.8 5.7a10.8 10.8 0 0 1 1.1 5.4 6.8 6.8 0 0 1-2.4 4.8 8.7 8.7 0 0 1-5.1 1.6 18.1 18.1 0 0 1-6.5-1 5.2 5.2 0 0 0-2.5-.5c-1.2.3-1 1-1.5 1.9-.6 1.2-3.3 1.5-3.8 0z"/><path d="M889.1 760.8l13-10.2 20.6-20.3-6.8-.3a4.5 4.5 0 0 0-1.4 2.8c-.1 2.5-5.6.2-8.4 1.6s-16.7 19.1-19.1 19-4.4-1.2-5.4.5a2.9 2.9 0 0 1-1.6 1z" opacity=".1"/><path fill="#65617d" d="M862.9 760l6.5 21 1 3.3 3.1-.9 6.9-1.9 30.6-8.4a26.6 26.6 0 0 0 11-3 33.4 33.4 0 0 1 19-4.1c4 .3 8.6-1.4 12.3-8.3 0 0 8.5-25-13-32.3s-22.4 3.9-22.4 3.9l-.3.1c-.8.6-3.1 2.2-3.2 4.3-.1 2.4-5.6.1-8.4 1.6s-16.7 19-19.1 19-4.4-1.3-5.4.4v.2c-.8 1-3 1.2-4.5 1.3H875.4l-1.6.5z"/><path d="M864.5 719.4l3.2.5 1.3-13-3.2-.6c.4 1.8-.6 8.8-1.3 13.1z" opacity=".1"/><path d="M947.2 658.5s9.4-2.7 7 24-19.6 43.6-19.6 43.6-20 8.8-29 7.4-15.6-1.7-15.6-1.7a22.8 22.8 0 0 0-9.1-2.5c-5-.2-15.7-3.3-15.9-4.3s2.7-15.9 1.4-17c0 0 14.2.6 15.6 1.6s3.4.3 5 0 6.2-4.3 15.4-.8c0 0 3.1.3 4.3-.5a4.3 4.3 0 0 1 3.2-.2 8.8 8.8 0 0 0 2.2-1.1c.3-.4 2.7 0 2.7 0a1 1 0 0 0 1.5-.7 6.7 6.7 0 0 1 1.4-2.2s2.8-15.4 8-21.2a3.3 3.3 0 0 0 1-3c-.4-1.6 8.4-24.6 20.5-21.4z" opacity=".1"/><path fill="#3f3d56" d="M947 656.4s9.4-2.7 7 24-19.7 43.6-19.7 43.6-20 8.8-29 7.4-15.5-1.7-15.5-1.7a22.8 22.8 0 0 0-9.1-2.5c-5-.2-15.7-3.3-16-4.3s2.7-15.9 1.5-17c0 0 14.1.6 15.6 1.6s3.4.3 5 0 6.1-4.3 15.3-.8c0 0 3.2.3 4.4-.5a4.4 4.4 0 0 1 3.1-.2 8.8 8.8 0 0 0 2.2-1.1c.3-.4 2.8 0 2.8 0a1 1 0 0 0 1.5-.7 6.7 6.7 0 0 1 1.4-2.2s2.7-15.4 7.9-21.2a3.3 3.3 0 0 0 1-2.9c-.4-1.6 8.4-24.7 20.6-21.5z"/><path d="M874 756.7l13.3 16.2c.2-.4 1.5-3.8 1.2-4s-2.6-5.3-7.3-7.4a13.7 13.7 0 0 1-5.7-5.2z" opacity=".1"/><path d="M874.1 784.7l1.5.8 6.7-5.4c3.4-2.7 6.7-5.4 6.7-5.6.1-.3 1.5-3.7 1.1-4-.1 0-.8-1.4-2-3-9-2.6-3.4 3.7-2.6 4 0 0-11-2.6-11.6 9.4a14.2 14.2 0 0 0 .2 3.8z" opacity=".1"/><path fill="#3f3d56" d="M885.3 789.8l2 1.1 19.4.5a39.5 39.5 0 0 0 7 3.3 6 6 0 0 0 1 .2 43.2 43.2 0 0 0 5.4.1h2.6s-1-24.7-1.6-27.2c-.3-1.3-2-1-3.6-.4a23.9 23.9 0 0 0-3.5 1.8s-8.3.8-9.6 1.5-5-.4-7.4 0-6.4-2.8-6.4-2.8c-11.4-3.7-5 3.3-4.2 3.6 0 0-11-2.5-11.6 9.5s10.5 8.8 10.5 8.8z"/><path fill="#565387" d="M913.5 780.3A33 33 0 0 0 920 795h2.6s-1-24.7-1.6-27.3c-.4-1.2-2-1-3.6-.3-2 3.7-4.1 8.8-4 12.9z"/><path d="M913.5 780.3A33 33 0 0 0 920 795h2.6s-1-24.7-1.6-27.3c-.4-1.2-2-1-3.6-.3-2 3.7-4.1 8.8-4 12.9z" opacity=".1"/><path d="M910.2 781c1.3 4.9 1.3 10.4 3.4 13.7a6 6 0 0 0 1 .2 43.2 43.2 0 0 0 5.5.1h2.6s-1-24.7-1.6-27.3c-.3-1.2-2-1-3.6-.3a23.9 23.9 0 0 0-3.5 1.8s-5.6 5.5-3.8 11.8zM842.9 731s9.6 3.2 17.9 14.4z" opacity=".1"/><g opacity=".1"><path d="M921.6 609.8v.2a6.7 6.7 0 0 1-.4.8 6.8 6.8 0 0 1 .4-1zM866.8 604.9a9.4 9.4 0 0 1 .7-2l-.1.5a14.4 14.4 0 0 0 .4 6.7 4.6 4.6 0 0 0 1.7 3c1.5 1 3.8.1 5 1.4.8.9.8 2.3 1.9 2.8a2 2 0 0 0 1.2.2c2.7-.4 4.2-3.4 6.8-4.3a6.8 6.8 0 0 1 4.5.4 3.4 3.4 0 0 1 1.5 1c.9 1.1.3 2.8.7 4.1.5 2 2.8 2.7 4.7 2.9s4.1.4 5.4 1.8a5 5 0 0 1 1 4 3 3 0 0 0 0 1.4c.6 1.5 3.2 1.3 3.9.1.5-.9.3-1.6 1.5-1.8a5 5 0 0 1 2.5.4 18.4 18.4 0 0 0 6.5 1 8.8 8.8 0 0 0 5.1-1.6 5.8 5.8 0 0 0 1.6-1.9 6.4 6.4 0 0 1-2.2 3.5 8.7 8.7 0 0 1-5.1 1.5 18.1 18.1 0 0 1-6.5-1 5.2 5.2 0 0 0-2.5-.4c-1.2.2-1 1-1.5 1.8-.7 1.2-3.3 1.4-3.9 0a3.2 3.2 0 0 1 0-1.5 4.9 4.9 0 0 0-1-4c-1.3-1.4-3.5-1.5-5.4-1.8s-4.2-1-4.7-2.9c-.4-1.3.2-3-.7-4a3.2 3.2 0 0 0-1.5-1 6.8 6.8 0 0 0-4.5-.5c-2.6.9-4.2 4-6.8 4.3a2.2 2.2 0 0 1-1.2-.1c-1-.6-1.1-2-1.9-2.9-1.2-1.3-3.5-.4-5-1.4a4.6 4.6 0 0 1-1.7-3 14.5 14.5 0 0 1-.4-6.7z"/></g><path d="M923.2 685.8c-1.9 2.5-4 4.8-5.6 7.5a14.2 14.2 0 0 0-2.5 8.8c1.7-1.8 2.5-4.2 3.5-6.3 1.9-3.7 4.6-6.9 6.8-10.3.5-.6 3.3-4.4 1.9-4.6-1.2-.1-3.5 4-4.1 4.9z" opacity=".1"/><path fill="#fff" d="M286.6 360.3H204a2.8 2.8 0 1 0 0 5.5h82.8a2.8 2.8 0 1 0 0-5.5zm0 9.4H204a2.8 2.8 0 0 0 0 5.5h82.8a2.8 2.8 0 0 0 0-5.5zm-4.1-63.8h-74.4a7 7 0 0 0-7 7v35a7 7 0 0 0 7 6.9h74.4a7 7 0 0 0 7-7v-35a7 7 0 0 0-7-6.9zm-65.2 42.6h-7a2.8 2.8 0 0 1 0-5.5h7a2.8 2.8 0 0 1 0 5.5zm0-30.7h-7a2.8 2.8 0 0 1 0-5.6h7a2.8 2.8 0 0 1 0 5.6zm28 28.3a15.8 15.8 0 1 1 15.8-15.7 15.8 15.8 0 0 1-15.8 15.7zm35 2.4h-7a2.8 2.8 0 0 1 0-5.5h7a2.8 2.8 0 0 1 0 5.5zm0-30.7h-7a2.8 2.8 0 0 1 0-5.6h7a2.8 2.8 0 0 1 0 5.6z"/><circle cx="245.3" cy="330.7" r="10.4" fill="#fff"/><path fill="#00c9ff" d="M403.4 236.3h375.7v208.6H403.4zM403.4 491.5h375.7v208.6H403.4z" opacity=".2"/><path fill="#fff" d="M477.3 381.5h11.4v38.1h-11.4zM499 334.4h11.4v85.3H499z"/><path fill="#dfe3ef" d="M520.6 291.9H532v127.8h-11.4z"/><path fill="#fff" d="M542.3 261.5h11.4v158.1h-11.4z"/><path fill="#00c9ff" d="M520.6 261.5H532v158.1h-11.4zM563.9 332.7h11.4v86.9h-11.4z"/><path fill="#00c9ff" d="M585.6 310.3H597v109.4h-11.4z" opacity=".2"/><path fill="#00c9ff" d="M607.3 276.1h11.4v143.5h-11.4z"/><path fill="#00c9ff" d="M628.9 355.7h11.4v63.9h-11.4z" opacity=".2"/><path fill="#00c9ff" d="M650.6 326.2H662v93.4h-11.4z"/><path fill="#00c9ff" d="M672.2 291.9h11.4v127.8h-11.4z" opacity=".2"/><path fill="#00c9ff" d="M693.9 291.9h11.4v127.8h-11.4z"/><path fill="#fff" d="M289.4 570.6a6.3 6.3 0 0 0-6.3-6.3h-75.6a6.3 6.3 0 0 0-6.3 6.3v9.4h88.2zM201 621a6.3 6.3 0 0 0 6.3 6.3h75.7a6.3 6.3 0 0 0 6.3-6.3v-31.5h-88.2zm28-9.4h32.3a2.8 2.8 0 1 1 0 5.5h-32.3a2.8 2.8 0 0 1 0-5.5zm-14.1 0h2.3a2.8 2.8 0 1 1 0 5.5H215a2.8 2.8 0 1 1 0-5.5zM477.3 636.8h11.4v38.1h-11.4zM499 589.6h11.4v85.3H499z"/><path fill="#dfe3ef" d="M520.6 547.1H532v127.8h-11.4z"/><path fill="#fff" d="M542.3 516.8h11.4v158.1h-11.4z"/><path fill="#00c9ff" d="M520.6 516.8H532v158.1h-11.4zM563.9 588h11.4v86.9h-11.4z"/><path fill="#fff" d="M585.6 565.5H597v109.4h-11.4zM607.3 531.4h11.4v143.5h-11.4z"/><path fill="#00c9ff" d="M628.9 611h11.4v63.9h-11.4zM650.6 581.5H662v93.4h-11.4zM672.2 547.1h11.4v127.8h-11.4zM693.9 547.1h11.4v127.8h-11.4z" opacity=".2"/></svg>