<svg xmlns="http://www.w3.org/2000/svg" xmlns:xlink="http://www.w3.org/1999/xlink" width="882.5" height="686.5" data-name="Layer 1"><defs><linearGradient id="c" x1="-121.1" x2="-121.1" y1="464.1" y2="77.4" gradientTransform="translate(704.4 124.5)" gradientUnits="userSpaceOnUse"><stop offset="0" stop-color="gray" stop-opacity=".3"/><stop offset=".5" stop-color="gray" stop-opacity=".1"/><stop offset="1" stop-color="gray" stop-opacity=".1"/></linearGradient><linearGradient id="a" x1="-402.3" x2="-402.3" y1="269.4" y2="170.7" gradientTransform="rotate(-15.3 695.6 -2294.2)" gradientUnits="userSpaceOnUse"><stop offset="0" stop-opacity=".1"/><stop offset=".6" stop-opacity=".1"/><stop offset="1" stop-opacity="0"/></linearGradient><linearGradient id="d" x1="-402.3" x2="-402.3" y1="252.8" y2="231.2" gradientTransform="translate(706.7 199.6)" xlink:href="#a"/><linearGradient id="e" x1="-402.3" x2="-402.3" y1="234.1" y2="195" gradientTransform="translate(699.5 200.6)" xlink:href="#a"/><linearGradient id="f" x1="-402.3" x2="-402.3" y1="272.4" y2="239.1" xlink:href="#a"/><linearGradient id="g" x1="-402.3" x2="-402.3" y1="216.8" y2="180.2" xlink:href="#a"/><linearGradient id="b" x1="-262" x2="-229.8" y1="207" y2="207" gradientTransform="translate(692 159.7)" gradientUnits="userSpaceOnUse"><stop offset="0" stop-opacity=".1"/><stop offset=".6" stop-opacity=".1"/><stop offset="1" stop-opacity="0"/></linearGradient><linearGradient id="h" x1="-91.6" x2="-59.5" y1="207" y2="207" gradientTransform="translate(686 114.8)" xlink:href="#b"/><linearGradient id="i" x1="84.1" x2="116.2" y1="207" y2="207" gradientTransform="translate(679.8 68.5)" xlink:href="#b"/><linearGradient id="j" x1="-262" x2="-229.8" y1="370.9" y2="370.9" gradientTransform="translate(735.1 153.9)" xlink:href="#b"/><linearGradient id="k" x1="-91.6" x2="-59.5" y1="370.9" y2="370.9" gradientTransform="translate(729.1 109)" xlink:href="#b"/><linearGradient id="l" x1="84.1" x2="116.2" y1="370.9" y2="370.9" gradientTransform="translate(723 62.7)" xlink:href="#b"/><linearGradient id="m" x1="495.2" x2="495.2" y1="686.5" y2="299.8" xlink:href="#c"/><linearGradient id="n" x1="372.8" x2="372.8" y1="598.6" y2="499.8" xlink:href="#a"/><linearGradient id="o" x1="214" x2="214" y1="475.2" y2="453.6" xlink:href="#a"/><linearGradient id="p" x1="214.1" x2="214.1" y1="456.5" y2="417.4" xlink:href="#a"/><linearGradient id="q" x1="372.8" x2="372.8" y1="601.6" y2="568.3" xlink:href="#a"/><linearGradient id="r" x1="372.8" x2="372.8" y1="546" y2="509.3" xlink:href="#a"/></defs><path fill="#f5f5f5" d="M5.2 203l738-201.4 99.4 364.2-738 201.4z"/><path fill="url(#c)" d="M196 201.9h774.5v386.7H196z" transform="rotate(-15.3 105.8 934)"/><path fill="#fff" d="M15.3 239.8L753.2 38.3l89.3 327.1-738 201.5z"/><circle cx="186.4" cy="322.7" r="9.6" fill="#ff5252" transform="rotate(-15.2 -294 873)"/><circle cx="214.3" cy="315.1" r="9.6" fill="#ff0" transform="rotate(-15.3 -263.2 853.9)"/><circle cx="242.2" cy="307.5" r="9.6" fill="#69f0ae" transform="rotate(-15.3 -235.3 846.2)"/><path fill="#00c9ff" d="M15.2 239.4l194.3-53 89.4 327.5-194.3 53z"/><path fill="url(#a)" d="M350.7 407.8c-7.4-27.1-36.5-42.8-65-35s-45.7 36-38.3 63.2a51.1 51.1 0 0 0 46.8 36.9l-3.5-12.7a17.8 17.8 0 0 1 13-21.4 17.7 17.7 0 0 1 22 11.9l3.5 12.6a51.2 51.2 0 0 0 21.5-55.5z" transform="translate(-158.8 -106.7)"/><rect width="6.4" height="21.6" x="301.2" y="430.8" fill="url(#d)" rx="2.9" ry="2.9" transform="rotate(-15.3 -173.1 980.4)"/><ellipse cx="297.2" cy="415.1" fill="url(#e)" rx="20.6" ry="19.6" transform="rotate(-15.3 -180.3 953.9)"/><path fill="url(#f)" d="M303.7 438.8a17.8 17.8 0 0 0-13 21.4L294 473a56.4 56.4 0 0 0 35-9.6l-3.4-12.6a17.7 17.7 0 0 0-22-11.9z" transform="translate(-158.8 -106.7)"/><path fill="url(#g)" d="M277 419.5a18.2 18.2 0 0 1-4.8-8.9 13 13 0 0 1 2-9.8c2.3-3.1 6-5 9.7-6.3s7.6-2.2 11.2-4a24.7 24.7 0 0 0 12.5-13.9 29.9 29.9 0 0 1 2.1 8.4 10.6 10.6 0 0 1-2.6 8c2.6-2 3.2 1 3 3.2 2 1.3 5.7.6 6.4 2.7a13.8 13.8 0 0 1 1 6.8c-.3 2.3 1.7 5.6-.6 6.4" transform="translate(-158.8 -106.7)"/><path fill="#00c9ff" d="M187.4 294.5a50.9 50.9 0 1 0-53.2 64.2l-3.4-12.7a17.3 17.3 0 0 1 12-21.2A17.3 17.3 0 0 1 164 337l3.5 12.7a50.9 50.9 0 0 0 19.9-55z"/><rect width="6.1" height="21.6" x="299.4" y="423.6" fill="#fff" stroke="#fff" stroke-miterlimit="10" rx="2.9" ry="2.9" transform="rotate(-15.3 -175.1 973.2)"/><circle cx="295.2" cy="407.9" r="19.6" fill="#fff" stroke="#fff" stroke-miterlimit="10" transform="rotate(-15.3 -182.3 946.7)"/><path fill="#fff" stroke="#fff" stroke-miterlimit="10" d="M142.9 324.8a17.3 17.3 0 0 0-12 21.2l3.3 12.7a51 51 0 0 0 33.3-9.1l-3.5-12.7a17.3 17.3 0 0 0-21.1-12zM117.1 305.3a19 19 0 0 1-4.6-9 13.2 13.2 0 0 1 1.9-9.7c2-3.1 5.6-5 9.1-6.2s7.2-2.1 10.6-3.8a23.4 23.4 0 0 0 11.7-13.7 31.4 31.4 0 0 1 2.2 8.3 10.6 10.6 0 0 1-2.4 8c2.5-2 3 1.1 2.9 3.1 1.9 1.4 5.4.7 6.2 2.9a14.5 14.5 0 0 1 1 6.7c-.2 2.3 1.7 5.7-.5 6.4"/><path fill="#fff" d="M146.5 278.6s13.5-2.5 9.4 19.6"/><path d="M59.4 403.3l194.3-53 44.6 163.2-194.3 53z" opacity=".1"/><path fill="#fff" d="M106.1 428.3l95.1-26 2.6 9.3-95.1 26zM112.1 450L230 417.8l2.6 9.3-117.8 32.2z"/><path fill="#f5f5f5" d="M248 197.3l140.6-38.4 19 69.3L267 266.6z"/><path fill="#e0e0e0" d="M266.4 264.5l140.5-38.4 19 69.3-140.6 38.4z"/><path fill="#f5f5f5" d="M581.9 106.2l140.5-38.4 19 69.3-140.6 38.4z"/><path fill="#e0e0e0" d="M600.2 173.4L740.7 135l19 69.3L619 242.7z"/><path fill="#f5f5f5" d="M414.5 151.9L555 113.5l19 69.3-140.6 38.4z"/><path fill="#e0e0e0" d="M432.8 219.1l140.5-38.4 19 69.3-140.6 38.4zM287.3 353.9l140-38 18.6 69L306 422.8z"/><path fill="#bdbdbd" d="M309.3 421.6l140.5-38.4 19 69.3-140.6 38.4z"/><path fill="#f5f5f5" d="M624.8 263.3l140.5-38.4 19 69.3-140.6 38.4z"/><path fill="#bdbdbd" d="M643 330.5l140.6-38.4 19 69.3L662 399.8z"/><path fill="#f5f5f5" d="M457.4 309l140.5-38.4 19 69.3-140.6 38.4z"/><path fill="#bdbdbd" d="M475.7 376.2l140.5-38.4 19 69.3-140.6 38.4z"/><ellipse cx="446.1" cy="366.6" fill="url(#b)" rx="16.1" ry="15" transform="rotate(-15.3 -31.4 905.4)"/><circle cx="445.8" cy="365.6" r="13.9" fill="#00c9ff" transform="rotate(-15.2 -31.2 916.3)"/><ellipse cx="610.4" cy="321.8" fill="url(#h)" rx="16.1" ry="15" transform="rotate(-15.3 132.9 860.6)"/><circle cx="610.1" cy="320.8" r="13.9" fill="#00c9ff" transform="rotate(-15.3 132.6 859.5)"/><ellipse cx="779.9" cy="275.5" fill="url(#i)" rx="16.1" ry="15" transform="rotate(-15.3 302.4 814.3)"/><circle cx="779.6" cy="274.5" r="13.9" fill="#00c9ff" transform="rotate(-15.3 302 813.3)"/><ellipse cx="489.3" cy="524.8" fill="url(#j)" rx="16.1" ry="15" transform="rotate(-15.3 11.7 1063.5)"/><circle cx="489" cy="523.7" r="13.9" fill="#2196f3" transform="rotate(-15.3 11.5 1062.5)"/><ellipse cx="653.6" cy="479.9" fill="url(#k)" rx="16.1" ry="15" transform="rotate(-15.3 176 1018.7)"/><circle cx="653.3" cy="478.9" r="13.9" fill="#2196f3" transform="rotate(-15.3 175.8 1017.6)"/><ellipse cx="823.1" cy="433.6" fill="url(#l)" rx="16.1" ry="15" transform="rotate(-15.3 345.5 972.4)"/><circle cx="822.8" cy="432.6" r="13.9" fill="#2196f3" transform="rotate(-15.3 345.2 971.4)"/><path fill="#f5f5f5" d="M113.3 300.3h764.9v377.5H113.3z"/><path fill="url(#m)" d="M108 299.8h774.5v386.7H108z"/><path fill="#fff" d="M113.3 338.4h764.9v339.1H113.3z"/><circle cx="131.5" cy="318.6" r="9.6" fill="#ff5252"/><circle cx="160.4" cy="318.6" r="9.6" fill="#ff0"/><circle cx="189.3" cy="318.6" r="9.6" fill="#69f0ae"/><path fill="#00c9ff" d="M113.3 337.9h201.4v339.6H113.3z"/><path fill="url(#n)" d="M426.3 550.7c0-28.1-24-50.9-53.5-50.9s-53.6 22.8-53.6 50.9c0 22 14.8 40.8 35.4 47.9v-13.1c0-9.5 8.2-17.2 18.2-17.2s18.1 7.7 18.1 17.2v13a51.1 51.1 0 0 0 35.4-47.8z" transform="translate(-158.8 -106.7)"/><rect width="6.4" height="21.6" x="210.8" y="453.6" fill="url(#o)" rx="2.9" ry="2.9"/><ellipse cx="214.1" cy="437" fill="url(#p)" rx="20.6" ry="19.6"/><path fill="url(#q)" d="M372.8 568.3c-10 0-18.2 7.7-18.2 17.2v13a56.4 56.4 0 0 0 36.3 0v-13c0-9.5-8.2-17.3-18.1-17.3z" transform="translate(-158.8 -106.7)"/><path fill="url(#r)" d="M352 542.6a18.2 18.2 0 0 1-2.2-9.8 13 13 0 0 1 4.6-9c3-2.4 7-3.2 11-3.5s7.9-.2 11.7-.9a24.7 24.7 0 0 0 15.8-10.1 29.9 29.9 0 0 1-.1 8.6 10.6 10.6 0 0 1-4.7 7.1c3.1-1.4 2.8 1.9 2 3.8 1.6 1.8 5.4 2 5.6 4.4a13.8 13.8 0 0 1-.8 6.8c-1 2 0 5.8-2.3 6" transform="translate(-158.8 -106.7)"/><path fill="#00c9ff" d="M264.9 436.5a50.9 50.9 0 1 0-68.2 47.9v-13.1A17.3 17.3 0 0 1 214 454a17.3 17.3 0 0 1 17.2 17.3v13a50.9 50.9 0 0 0 33.7-47.8z"/><rect width="6.1" height="21.6" x="210.9" y="446.1" fill="#fff" stroke="#fff" stroke-miterlimit="10" rx="2.9" ry="2.9"/><circle cx="214" cy="429.5" r="19.6" fill="#fff" stroke="#fff" stroke-miterlimit="10"/><path fill="#fff" stroke="#fff" stroke-miterlimit="10" d="M214 454a17.3 17.3 0 0 0-17.3 17.3v13a51 51 0 0 0 34.5 0v-13A17.3 17.3 0 0 0 214 454zM194.3 428.4a19 19 0 0 1-2.1-9.9 13.2 13.2 0 0 1 4.3-8.9c2.9-2.4 6.7-3.3 10.4-3.6s7.5 0 11.2-.8a23.4 23.4 0 0 0 15-10.1 31.4 31.4 0 0 1-.1 8.6 10.6 10.6 0 0 1-4.5 7c3-1.3 2.7 2 2 3.9 1.5 1.7 5 2 5.3 4.3a14.5 14.5 0 0 1-.8 6.8c-.9 2.2 0 5.9-2.2 6"/><path fill="#fff" d="M229.6 410.3s13.7 1.1 4 21.4"/><path d="M112.7 507.7h201.4V677H112.7z" opacity=".1"/><path fill="#fff" d="M151.3 544.1h98.6v9.6h-98.6z"/><path fill="#bdbdbd" d="M390.2 395.2h98.6v9.6h-98.6z"/><path fill="#e0e0e0" d="M390.2 453.1h352.4v9.6H390.2zM390.2 510.9h352.4v9.6H390.2z"/><path fill="#64ffda" d="M390.2 568.8h98.6v9.6h-98.6z"/><path fill="#f5f5f5" d="M516.6 568.8h98.6v9.6h-98.6z"/><path fill="#64ffda" d="M644.1 568.8h98.6v9.6h-98.6z"/><path fill="#fff" d="M151.3 566.6h122.1v9.6H151.3z"/></svg>