<svg id="Layer_1" data-name="Layer 1" xmlns="http://www.w3.org/2000/svg" width="128px" height="128px" viewBox="0 0 240 208.24"><defs><style>.cls-1{fill:#d3d3d3;}.cls-2{fill:#f2f2f2;}.cls-3{fill:none;stroke:#eaeaea;stroke-miterlimit:10;stroke-width:2px;}.cls-4{fill:#bfbebe;}</style></defs><title>design-256</title><path class="cls-1" d="M129.06,55.64v80.12a20,20,0,0,1-1.06,40h-.53v56.39h12.11a2.54,2.54,0,0,0,2.54-2.54V218L186.72,139C151.93,133.06,133.48,72.25,129.06,55.64Z" transform="translate(-8 -23.88)"/><path class="cls-2" d="M108,155.7a20,20,0,0,1,19-19.94V55.64c-4.42,16.61-22.87,77.41-57.66,83.31L113.88,218v11.57a2.54,2.54,0,0,0,2.54,2.54h11V175.73A20,20,0,0,1,108,155.7Z" transform="translate(-8 -23.88)"/><path class="cls-3" d="M18.21,143.88a109.79,109.79,0,0,1,219.57,0" transform="translate(-8 -23.88)"/><rect class="cls-4" y="109.79" width="20.43" height="20.43" rx="4.13" ry="4.13"/><rect class="cls-4" x="219.57" y="109.79" width="20.43" height="20.43" rx="4.13" ry="4.13"/><rect class="cls-4" x="109.79" width="20.43" height="20.43" rx="4.13" ry="4.13"/></svg>