<svg id="Layer_1" data-name="Layer 1" xmlns="http://www.w3.org/2000/svg" width="128px" height="128px" viewBox="0 0 242 164.07"><defs><style>.cls-1{fill:#fff;}.cls-2{fill:#e5e5e5;}.cls-3{fill:#c6c6c6;}.cls-4{fill:#999898;}.cls-5{fill:#7c7c7c;}.cls-6{fill:#727272;}.cls-7{fill:#999696;}</style></defs><title>webdev-256</title><rect class="cls-1" x="102.54" y="159.97" width="36.92" height="4.1" rx="1.23" ry="1.23"/><rect class="cls-2" x="110.75" y="137.41" width="22.56" height="22.56"/><path class="cls-3" d="M120.43,183.37s17.31,6.69,19.88,20.52V183.37Z" transform="translate(-7 -45.97)"/><rect class="cls-1" width="242" height="137.41" rx="4" ry="4"/><rect class="cls-2" x="5.13" y="6.15" width="231.75" height="125.1"/><rect class="cls-4" x="15.88" y="31.92" width="22.56" height="5.43"/><rect class="cls-5" x="27.16" y="40.9" width="22.56" height="5.43"/><rect class="cls-4" x="22.88" y="139.31" width="22.56" height="5.43" transform="translate(61.32 238.08) rotate(180)"/><rect class="cls-5" x="34.16" y="130.33" width="22.56" height="5.43" transform="translate(83.89 220.12) rotate(180)"/><rect class="cls-6" x="38.44" y="51.77" width="89" height="5.43"/><rect class="cls-6" x="38.44" y="62.63" width="89" height="5.43"/><rect class="cls-6" x="38.44" y="73.49" width="89" height="5.43"/><rect class="cls-6" x="141.65" y="116.12" width="90.68" height="8.36"/><rect class="cls-6" x="141.65" y="11.65" width="90.68" height="8.36"/><rect class="cls-6" x="141.65" y="22.72" width="90.68" height="90.68"/><rect class="cls-7" x="148.34" y="29.2" width="22" height="22"/><rect class="cls-7" x="175.99" y="29.2" width="22" height="22"/><rect class="cls-7" x="203.15" y="29.2" width="22" height="22"/><rect class="cls-7" x="148.34" y="85.06" width="22" height="22"/><rect class="cls-7" x="175.99" y="85.06" width="22" height="22"/><rect class="cls-7" x="148.83" y="57.06" width="76.32" height="22"/><rect class="cls-7" x="203.15" y="85.06" width="22" height="22"/></svg>